<?xml version="1.0" standalone="no"?>
<!DOCTYPE svg PUBLIC "-//W3C//DTD SVG 20010904//EN"
 "http://www.w3.org/TR/2001/REC-SVG-20010904/DTD/svg10.dtd">
<svg version="1.0" xmlns="http://www.w3.org/2000/svg"
 width="2048.000000pt" height="1080.000000pt" viewBox="0 0 2048.000000 1080.000000"
 preserveAspectRatio="xMidYMid meet">
<metadata>
Created by potrace 1.16, written by Peter Selinger 2001-2019
</metadata>
<g transform="translate(0.000000,1080.000000) scale(0.100000,-0.100000)"
fill="#000000" stroke="none">
<path d="M5623 10397 c-180 -274 -273 -575 -243 -793 34 -258 213 -568 500
-868 l95 -100 -65 50 c-98 75 -298 278 -373 379 -61 81 -183 305 -215 395 -16
45 -23 34 -58 -91 -32 -117 -44 -340 -24 -453 35 -196 157 -435 333 -653 37
-46 62 -83 56 -83 -6 0 -41 14 -78 31 -88 43 -197 153 -275 282 -33 53 -63 97
-67 97 -30 0 -22 -382 10 -505 47 -179 170 -370 378 -585 63 -66 113 -120 111
-120 -13 0 -120 40 -158 60 -60 30 -81 47 -172 137 -43 42 -80 74 -83 71 -16
-15 85 -308 153 -443 104 -209 322 -350 599 -389 59 -9 194 -27 298 -41 426
-58 544 -88 895 -223 135 -51 268 -102 295 -112 28 -9 113 -57 190 -105 l139
-87 31 18 c53 31 139 100 183 148 187 203 219 455 90 711 -133 263 -393 511
-870 832 -321 216 -515 371 -732 587 -202 202 -349 386 -497 620 -238 379
-389 849 -389 1208 0 49 -4 88 -8 88 -4 0 -26 -28 -49 -63z m1391 -2535 c552
-391 773 -614 849 -857 48 -152 19 -303 -78 -411 l-36 -39 17 35 c25 51 30
171 10 250 -36 139 -144 320 -321 537 -105 127 -386 411 -500 503 -49 40 -94
78 -100 83 -25 24 49 -23 159 -101z"/>
<path d="M10480 7273 c-256 -69 -468 -130 -472 -137 -5 -7 -8 -7 -8 0 0 11
-116 54 -220 80 -387 96 -731 56 -996 -118 -175 -115 -298 -265 -391 -475 -57
-128 -114 -212 -204 -300 -59 -58 -146 -127 -173 -136 -11 -4 13 -31 312 -341
l173 -179 68 46 c81 56 166 143 206 210 15 27 45 96 66 153 89 242 170 353
313 430 28 15 52 28 54 30 2 1 -4 16 -12 33 -24 46 -19 51 7 6 67 -118 234
-140 324 -43 12 12 31 44 42 69 10 26 31 55 45 65 15 11 56 40 91 66 35 27 86
61 112 76 45 26 193 92 208 92 4 0 -14 -24 -40 -52 -155 -172 -205 -281 -316
-698 -84 -314 -132 -430 -260 -620 -203 -303 -529 -554 -929 -715 -61 -25
-202 -72 -313 -105 -322 -95 -499 -165 -767 -301 -712 -360 -1318 -898 -2012
-1787 -544 -696 -767 -961 -1029 -1222 -372 -371 -688 -585 -1102 -746 -305
-119 -754 -223 -1084 -250 -46 -4 -83 -10 -83 -14 0 -8 70 -23 200 -42 126
-18 488 -15 640 6 618 85 1098 308 1705 794 384 308 761 677 1241 1217 554
622 1003 966 1540 1178 175 70 338 116 709 202 458 106 674 186 890 330 300
201 553 472 685 735 122 242 168 453 215 990 29 339 36 386 72 495 109 337
441 719 891 1026 56 39 102 72 102 75 0 10 -60 -4 -500 -123z m-1019 -448 c30
-16 59 -61 59 -92 -1 -23 -19 -46 -48 -62 -28 -15 -42 -7 -42 24 0 68 -97 103
-159 57 -32 -23 -61 -29 -61 -12 0 21 88 99 116 103 42 7 102 -1 135 -18z"/>
<path d="M270 6811 c0 -16 196 -196 277 -254 236 -168 478 -273 903 -391 168
-46 461 -115 582 -137 38 -7 66 -15 63 -17 -8 -8 -258 -2 -400 9 -71 6 -188
19 -259 30 -71 10 -141 19 -155 19 l-26 -1 30 -25 c55 -46 209 -137 330 -195
296 -142 532 -187 994 -190 194 -2 195 -2 121 -14 -222 -39 -341 -49 -552 -50
-120 0 -218 -3 -218 -8 0 -14 123 -88 245 -147 443 -217 911 -302 1475 -268
l115 7 -115 -29 c-63 -16 -189 -43 -280 -61 -172 -33 -191 -38 -197 -56 -5
-14 167 -102 288 -147 291 -108 667 -159 1009 -136 445 29 801 127 1760 487
520 195 649 232 960 277 265 38 672 61 903 51 107 -5 157 -4 157 4 0 23 -199
149 -422 265 -518 271 -1093 441 -1643 487 -346 29 -877 -9 -1623 -114 -228
-33 -294 -34 -137 -3 265 52 672 109 990 138 220 20 856 17 1019 -5 381 -52
902 -191 1331 -356 71 -28 131 -48 134 -45 18 17 -196 190 -348 282 -537 322
-1275 474 -2148 441 -429 -16 -781 -60 -1313 -164 -347 -67 -560 -91 -930
-101 -778 -22 -1860 129 -2768 386 -159 45 -152 43 -152 31z"/>
<path d="M12350 5539 c-12 -15 -96 -36 -405 -100 -492 -101 -448 -94 -478 -74
-38 25 -47 11 -24 -36 17 -34 23 -40 43 -35 29 8 412 88 699 146 116 24 211
44 213 46 2 1 -5 18 -15 37 -17 33 -19 34 -33 16z"/>
<path d="M7517 5355 c-631 -126 -1231 -305 -1780 -531 -60 -25 -214 -93 -341
-151 -127 -58 -463 -208 -746 -333 -1566 -692 -1921 -899 -2435 -1414 -187
-187 -303 -326 -427 -511 -144 -216 -286 -536 -303 -685 l-6 -55 64 120 c248
465 579 853 995 1165 263 198 706 424 1247 637 256 102 403 154 409 145 2 -4
14 -43 26 -87 71 -254 189 -549 296 -737 110 -195 404 -606 429 -601 5 1 50
100 100 220 287 687 607 1274 884 1621 401 504 1049 958 1701 1193 128 46 105
47 -113 4z"/>
<path d="M17538 5300 c5 -48 -18 -46 272 -25 185 14 229 13 449 -1 266 -18
261 -19 261 39 0 31 -6 33 -32 10 -17 -15 -34 -15 -241 -2 -197 14 -247 14
-439 0 -202 -13 -219 -13 -236 2 -29 26 -38 20 -34 -23z"/>
<path d="M12482 5165 l-20 -25 -371 0 c-300 0 -387 -3 -449 -16 -75 -15 -161
-51 -193 -80 -26 -23 -32 -16 -11 14 48 69 32 71 -38 6 -75 -70 -80 -93 -80
-381 l0 -242 153 -3 152 -3 -33 -20 -34 -20 44 -5 43 -5 -133 -72 c-74 -40
-136 -73 -138 -73 -2 0 -4 11 -4 25 0 23 -2 24 -25 13 l-25 -11 0 -514 0 -513
405 0 c332 0 420 3 483 16 139 29 245 96 283 179 17 36 19 74 19 423 0 213 -4
382 -9 382 -5 0 -15 -9 -23 -21 -13 -20 -21 -21 -153 -20 -125 2 -140 4 -152
22 -8 10 -18 19 -24 19 -5 0 -9 -143 -9 -364 0 -233 -4 -367 -10 -371 -19 -12
-10 -35 13 -35 l22 -1 -24 -20 c-22 -18 -37 -19 -239 -17 -161 2 -216 6 -220
16 -2 6 3 12 12 12 14 0 16 37 16 349 l0 349 98 54 c53 30 175 97 269 149
l173 94 0 108 c0 59 -4 107 -9 107 -5 0 -16 -11 -25 -25 l-16 -25 -235 0
c-242 0 -308 8 -272 34 15 11 17 31 17 137 0 68 4 130 8 137 18 27 86 32 434
32 l358 0 0 115 c0 63 -2 115 -4 115 -3 0 -13 -11 -24 -25z"/>
<path d="M12790 4215 l0 -975 195 0 195 0 0 841 0 841 28 -6 c69 -17 233 -108
292 -162 114 -106 105 -35 108 -827 l3 -687 187 2 c187 3 187 3 186 26 0 12
-1 451 -3 975 l-2 952 -24 -27 c-24 -28 -24 -28 -159 -28 -132 0 -135 1 -154
25 -11 14 -23 25 -26 25 -3 0 -6 -32 -6 -72 0 -53 4 -76 17 -90 15 -17 15 -20
3 -28 -25 -16 -48 -11 -129 24 -149 65 -313 100 -529 112 -125 6 -134 8 -149
30 -8 13 -19 24 -24 24 -5 0 -9 -416 -9 -975z"/>
<path d="M15130 4390 c0 -680 2 -805 14 -829 26 -50 88 -93 226 -159 144 -68
190 -102 190 -139 l0 -23 187 2 187 3 7 33 c10 50 34 69 165 132 66 32 135 71
153 85 64 55 61 5 61 890 0 443 -3 805 -6 805 -3 0 -15 -11 -26 -25 -19 -24
-22 -25 -154 -25 -135 0 -135 0 -159 28 l-24 27 -1 -791 c0 -776 0 -792 -20
-817 -27 -34 -25 -40 13 -32 l32 6 -29 -25 c-31 -26 -175 -86 -206 -86 -34 0
-191 62 -218 86 l-27 23 34 1 35 0 -22 20 -22 21 0 789 c0 491 -4 791 -10 795
-5 3 -17 -6 -26 -20 -16 -25 -17 -25 -160 -25 -142 0 -144 0 -160 25 -9 14
-20 25 -25 25 -5 0 -9 -343 -9 -800z"/>
<path d="M16690 4215 l0 -975 195 0 195 0 0 975 c0 628 -3 975 -10 975 -5 0
-17 -11 -26 -25 -16 -25 -18 -25 -160 -25 -142 0 -144 0 -160 25 -9 14 -20 25
-25 25 -5 0 -9 -416 -9 -975z"/>
<path d="M18605 5166 l-17 -25 -406 -3 c-390 -4 -410 -5 -474 -26 -36 -12 -89
-38 -117 -57 l-51 -34 26 45 c31 53 21 56 -35 8 -82 -71 -86 -84 -89 -376 l-3
-258 158 0 158 0 -40 -25 -40 -25 42 2 c23 1 44 0 47 -3 5 -5 -230 -135 -254
-141 -9 -2 -16 6 -18 19 -3 19 -6 21 -28 11 l-24 -11 2 -511 3 -511 435 0
c476 0 490 1 603 63 62 33 130 108 145 160 13 43 18 772 5 772 -4 0 -17 -9
-29 -21 -20 -18 -34 -20 -154 -20 -120 0 -134 2 -154 20 -12 12 -25 21 -29 21
-4 0 -7 -162 -7 -361 0 -231 -4 -367 -10 -380 -9 -16 -7 -21 11 -27 l22 -9
-24 -16 c-20 -15 -53 -17 -225 -17 -111 0 -209 3 -218 6 -20 8 -21 24 -1 24
13 0 15 45 15 348 l0 348 270 149 270 150 0 107 c0 60 -4 108 -9 108 -5 0 -16
-11 -25 -25 l-16 -25 -235 0 c-242 0 -308 8 -272 34 15 11 17 31 17 138 0 114
2 127 21 144 20 18 44 19 405 22 l384 3 0 109 c0 60 -4 111 -10 115 -5 3 -16
-5 -25 -19z"/>
<path d="M18890 5093 c0 -56 -3 -108 -6 -117 -5 -14 18 -16 203 -18 l208 -3 3
-858 2 -857 190 2 190 3 3 855 2 855 198 3 197 2 0 118 -1 117 -24 -27 -24
-28 -546 0 -546 0 -24 28 -24 27 -1 -102z"/>
<path d="M10772 4931 c-111 -547 -426 -1109 -843 -1505 -418 -399 -989 -697
-1545 -810 -565 -115 -1205 -73 -1773 116 -81 27 -128 38 -136 32 -19 -14
-903 -978 -907 -989 -12 -36 455 -288 722 -388 811 -307 1657 -298 2439 23
603 248 1059 598 1445 1110 355 471 559 980 642 1605 35 259 24 915 -15 915
-3 0 -16 -49 -29 -109z"/>
<path d="M4910 4634 c-210 -43 -499 -55 -690 -30 -58 8 -109 11 -114 6 -4 -4
-5 -92 -1 -194 6 -141 11 -186 20 -186 16 0 835 396 849 410 6 6 8 9 6 9 -3
-1 -34 -7 -70 -15z"/>
<path d="M17778 3163 c-2 -4 -4 -24 -3 -43 l0 -35 218 -3 217 -2 0 47 0 46
-23 -21 c-22 -21 -33 -22 -192 -22 -157 0 -170 1 -191 21 -12 11 -24 17 -26
12z"/>
<path d="M17382 1914 l3 -729 195 0 195 0 0 717 c0 394 -4 720 -9 725 -4 4
-15 -2 -23 -14 -15 -22 -21 -23 -161 -23 -145 0 -146 0 -174 27 l-28 27 2
-730z"/>
<path d="M12022 1908 l3 -723 195 0 195 0 3 638 2 637 111 0 c61 0 119 -5 130
-10 10 -6 27 -25 36 -43 16 -29 18 -84 23 -627 l5 -595 190 0 190 0 5 590 c5
585 5 590 27 631 12 23 29 44 38 48 9 3 68 6 131 6 l114 0 0 -637 -1 -638 193
0 193 0 3 723 c1 451 -1 722 -7 722 -6 0 -16 -9 -23 -19 -13 -18 -32 -20 -348
-23 -331 -4 -336 -5 -424 -32 l-89 -27 -66 20 c-115 35 -189 41 -487 41 -278
0 -292 1 -309 20 -10 11 -22 20 -27 20 -4 0 -7 -325 -6 -722z"/>
<path d="M14190 1905 l0 -725 610 0 610 0 0 92 0 92 -28 -27 -28 -27 -391 0
c-277 0 -394 3 -399 11 -3 6 -1 15 5 19 9 5 12 62 11 214 l-1 206 281 0 280 0
0 85 c0 47 -4 85 -9 85 -5 0 -16 -11 -25 -25 l-17 -26 -259 3 c-142 2 -262 7
-267 12 -4 4 -1 13 7 18 13 8 15 48 12 279 l-3 269 416 0 415 0 0 85 c0 86 -9
103 -32 65 -13 -20 -24 -20 -578 -20 -554 0 -565 0 -578 20 -7 11 -17 20 -22
20 -7 0 -10 -252 -10 -725z"/>
<path d="M15785 2588 c-3 -24 -5 -349 -3 -723 l3 -680 440 0 c468 1 524 5 636
53 59 25 118 78 135 119 20 47 20 1059 0 1106 -13 32 -84 103 -93 94 -2 -3 3
-19 11 -36 21 -39 20 -48 -1 -29 -30 26 -99 57 -165 75 -52 13 -136 17 -491
20 -408 4 -428 6 -440 24 -18 29 -25 23 -32 -23z m816 -138 c18 -10 19 -27 19
-540 0 -347 -3 -531 -10 -535 -16 -10 -2 -25 23 -25 20 0 20 -1 4 -17 -16 -16
-44 -18 -229 -21 -117 -2 -222 -1 -235 3 -26 6 -31 22 -8 27 14 3 16 67 15
561 l0 557 200 0 c120 0 209 -4 221 -10z"/>
<path d="M18507 2580 c-91 -11 -193 -43 -239 -75 -41 -27 -48 -23 -22 13 31
44 7 45 -38 1 -37 -35 -47 -53 -52 -89 -4 -25 -6 -315 -4 -645 l3 -600 195 0
195 0 3 193 2 192 220 0 220 0 2 -192 3 -193 190 0 190 0 3 615 c2 409 -1 627
-8 651 -9 34 -85 117 -97 106 -2 -3 3 -19 11 -36 21 -39 20 -48 -1 -29 -30 26
-99 57 -165 74 -73 18 -498 28 -611 14z m464 -130 c18 -10 19 -25 19 -365 0
-327 1 -355 18 -364 39 -24 -16 -31 -238 -31 -222 0 -277 7 -237 31 16 9 17
37 17 364 0 327 1 355 18 364 23 14 377 14 403 1z"/>
</g>
</svg>
